<svg xmlns="http://www.w3.org/2000/svg" viewBox="0 0 1920 1080"><g transform="
          rotate(0 960 540) 
          translate(-0 -0)
          scale(1)
        "><rect width="1920" height="1080" fill="rgb(184, 171, 255)"></rect><g transform="translate(0, 0)"><path fill="rgb(131, 114, 218)" fill-opacity="1" d="M0,43.971L45.714,63.853C91.429,83.735,182.857,123.498,274.286,142.277C365.714,161.057,457.143,158.852,548.571,185.801C640,212.75,731.429,268.853,822.857,264.991C914.286,261.128,1005.714,197.301,1097.143,187.403C1188.571,177.506,1280,221.539,1371.429,203.309C1462.857,185.078,1554.286,104.585,1645.714,109.436C1737.143,114.286,1828.571,204.48,1874.286,249.577L1920,294.674L1920,1080L1874.286,1080C1828.571,1080,1737.143,1080,1645.714,1080C1554.286,1080,1462.857,1080,1371.429,1080C1280,1080,1188.571,1080,1097.143,1080C1005.714,1080,914.286,1080,822.857,1080C731.429,1080,640,1080,548.571,1080C457.143,1080,365.714,1080,274.286,1080C182.857,1080,91.429,1080,45.714,1080L0,1080Z"></path></g><g transform="translate(0, 360)"><path fill="rgb(79, 57, 180)" fill-opacity="1" d="M0,316.808L45.714,272.22C91.429,227.633,182.857,138.458,274.286,129.631C365.714,120.803,457.143,192.324,548.571,199.711C640,207.097,731.429,150.349,822.857,145.659C914.286,140.969,1005.714,188.337,1097.143,178.167C1188.571,167.997,1280,100.289,1371.429,113.564C1462.857,126.839,1554.286,221.098,1645.714,228.219C1737.143,235.339,1828.571,155.322,1874.286,115.314L1920,75.305L1920,720L1874.286,720C1828.571,720,1737.143,720,1645.714,720C1554.286,720,1462.857,720,1371.429,720C1280,720,1188.571,720,1097.143,720C1005.714,720,914.286,720,822.857,720C731.429,720,640,720,548.571,720C457.143,720,365.714,720,274.286,720C182.857,720,91.429,720,45.714,720L0,720Z"></path></g><g transform="translate(0, 720)"><path fill="rgb(26, 0, 143)" fill-opacity="1" d="M0,57.606L45.714,52.018C91.429,46.43,182.857,35.254,274.286,82.989C365.714,130.724,457.143,237.37,548.571,273.576C640,309.782,731.429,275.548,822.857,239.057C914.286,202.566,1005.714,163.817,1097.143,172.37C1188.571,180.923,1280,236.778,1371.429,266.409C1462.857,296.04,1554.286,299.446,1645.714,289.749C1737.143,280.052,1828.571,257.252,1874.286,245.851L1920,234.451L1920,360L1874.286,360C1828.571,360,1737.143,360,1645.714,360C1554.286,360,1462.857,360,1371.429,360C1280,360,1188.571,360,1097.143,360C1005.714,360,914.286,360,822.857,360C731.429,360,640,360,548.571,360C457.143,360,365.714,360,274.286,360C182.857,360,91.429,360,45.714,360L0,360Z"></path></g></g></svg>